<?xml version="1.0" encoding="UTF-8" standalone="no"?><!-- Generator: Gravit.io --><svg xmlns="http://www.w3.org/2000/svg" xmlns:xlink="http://www.w3.org/1999/xlink" style="isolation:isolate" viewBox="0 0 1840 512" width="1840pt" height="512pt"><defs><clipPath id="_clipPath_cfmcwgw9evliPjWJpjKC26jHEemWApWr"><rect width="1840" height="512"/></clipPath></defs><g clip-path="url(#_clipPath_cfmcwgw9evliPjWJpjKC26jHEemWApWr)"><path d=" M 1185.904 140.279 C 1184.226 136.172 1186.717 131.263 1191.463 129.324 C 1196.209 127.385 1201.425 129.145 1203.103 133.252 C 1204.781 137.359 1202.29 142.268 1197.543 144.207 C 1192.797 146.146 1187.582 144.386 1185.904 140.279 Z " fill="rgb(202,155,84)"/><path d=" M 1138.304 157.301 C 1139.937 152.344 1146.095 149.91 1152.046 151.87 C 1157.998 153.831 1161.505 159.447 1159.872 164.405 C 1158.239 169.362 1152.081 171.796 1146.13 169.835 C 1140.178 167.875 1136.671 162.259 1138.304 157.301 Z " fill="rgb(202,155,84)"/><path d=" M 1168.699 192.337 C 1168.699 188.683 1171.937 185.717 1175.924 185.717 C 1179.912 185.717 1183.149 188.683 1183.149 192.337 C 1183.149 195.99 1179.912 198.957 1175.924 198.957 C 1171.937 198.957 1168.699 195.99 1168.699 192.337 Z " fill="rgb(202,155,84)"/><path d=" M 891.939 112.674 C 893.442 112.135 895.035 111.733 896.68 111.448 L 896.68 111.448 L 896.68 111.448 C 924.363 109.08 951.379 109.1 977.665 111.448 C 986.344 112.584 994.199 118.089 996.209 126.311 L 996.209 126.311 C 995.169 126.899 994.186 127.607 993.268 128.426 C 988.181 132.965 986.251 139.884 987.433 146.828 C 984.59 148.571 981.242 149.558 977.665 149.558 C 957.238 148.859 936.422 148.728 915.136 149.131 C 914.664 165.603 914.427 184.167 914.41 204.698 L 951.412 203.088 C 958.977 202.759 965.386 208.634 965.715 216.199 L 965.715 216.199 C 966.044 223.764 960.17 230.173 952.605 230.502 L 914.509 232.159 L 914.509 232.159 C 914.685 255.129 915.095 280.201 915.735 307.371 C 915.735 317.888 912.917 325.91 896.68 326.426 L 896.68 326.426 C 886.163 326.426 878.855 320.749 877.625 307.371 C 875.388 226.542 875.408 167.809 877.625 131.109 C 877.625 131.008 877.626 130.906 877.63 130.806 C 877.626 130.706 877.625 130.604 877.625 130.503 L 877.625 130.503 C 877.625 125.605 879.459 121.534 882.512 118.416 C 884.966 115.636 888.232 113.602 891.939 112.674 Z  M 1144.959 93.02 L 1144.959 92.993 C 1144.959 74.695 1130.104 59.84 1111.806 59.84 L 730.153 59.84 C 711.855 59.84 697 74.695 697 92.993 L 697 328.078 C 697 346.376 711.855 361.232 730.153 361.232 L 841.959 361.232 L 920.98 440.252 L 1000.001 361.232 L 1111.806 361.232 C 1130.104 361.232 1144.959 346.376 1144.959 328.078 L 1144.959 237.766 C 1141.541 237.11 1138.186 235.815 1135.068 233.842 C 1126.7 228.548 1122.01 219.622 1121.773 210.406 C 1118.191 209.774 1114.671 208.452 1111.409 206.389 C 1098.051 197.937 1094.066 180.23 1102.518 166.872 C 1102.868 166.317 1103.235 165.779 1103.622 165.263 C 1096.867 156.049 1096.044 143.265 1102.518 133.033 C 1105.652 128.078 1110.06 124.413 1115.054 122.214 C 1114.916 116.781 1116.341 111.254 1119.463 106.32 C 1125.151 97.329 1135.033 92.584 1144.959 93.02 L 1144.959 93.02 L 1144.959 93.02 L 1144.959 93.02 Z " fill-rule="evenodd" fill="rgb(202,155,84)"/><path d=" M 770.723 133.971 C 774.787 122.72 788.84 117.468 802.086 122.252 C 815.332 127.036 822.786 140.055 818.723 151.306 C 814.659 162.558 800.606 167.809 787.361 163.025 C 774.115 158.242 766.66 145.223 770.723 133.971 Z " fill="rgb(121,74,28)"/><path d=" M 736.403 232.223 C 740.01 222.237 749.887 216.64 758.446 219.731 C 767.006 222.822 771.027 233.439 767.421 243.425 C 763.814 253.412 753.937 259.009 745.377 255.918 C 736.818 252.827 732.797 242.21 736.403 232.223 Z " fill="rgb(121,74,28)"/><path d=" M 869.818 77.635 C 876.015 74.919 882.937 77.026 885.265 82.338 C 887.594 87.65 884.453 94.168 878.255 96.884 C 872.058 99.601 865.137 97.493 862.808 92.181 C 860.48 86.87 863.621 80.352 869.818 77.635 Z " fill="rgb(121,74,28)"/><path d=" M 920.179 350.043 C 923.849 339.881 933.9 334.185 942.61 337.331 C 951.32 340.477 955.412 351.28 951.742 361.442 C 948.072 371.604 938.021 377.3 929.311 374.154 C 920.601 371.009 916.51 360.205 920.179 350.043 Z " fill="rgb(121,74,28)"/><path d=" M 998.999 163.622 C 990.152 153.707 989.87 139.501 998.369 131.919 C 1006.868 124.337 1020.949 126.23 1029.796 136.145 C 1038.642 146.06 1038.924 160.266 1030.425 167.849 C 1021.927 175.431 1007.845 173.537 998.999 163.622 Z " fill="rgb(121,74,28)"/><path d=" M 822.101 291.119 C 833.165 287.5 844.146 290.669 846.605 298.191 C 849.065 305.713 842.079 314.757 831.014 318.376 C 819.95 321.994 808.969 318.825 806.51 311.303 C 804.05 303.781 811.036 294.737 822.101 291.119 Z " fill="rgb(121,74,28)"/><path d=" M 1002.143 254.329 C 1006.604 241.977 1018.822 235.053 1029.409 238.877 C 1039.997 242.7 1044.97 255.833 1040.51 268.185 C 1036.049 280.537 1023.831 287.461 1013.244 283.637 C 1002.656 279.814 997.682 266.681 1002.143 254.329 Z " fill="rgb(121,74,28)"/><path d=" M 1086.946 325.733 C 1074.629 323.274 1066.341 312.706 1068.449 302.148 C 1070.556 291.591 1082.268 285.016 1094.585 287.475 C 1106.902 289.934 1115.19 300.502 1113.082 311.06 C 1110.975 321.617 1099.263 328.192 1086.946 325.733 Z " fill="rgb(121,74,28)"/></g></svg>